HIERARCHY
ROOT root
{
	OFFSET	0	13.1	24.9
	CHANNELS 6  Xposition Yposition Zposition Xrotation Yrotation Zrotation
	JOINT spine_1
	{
		OFFSET	0	9.99999	0
		CHANNELS 3  Xrotation Yrotation Zrotation
		JOINT spine_2
		{
			OFFSET	0	112	-10
			CHANNELS 3  Xrotation Yrotation Zrotation
			JOINT spine_3
			{
				OFFSET	0	206.5	19.3
				CHANNELS 3  Xrotation Yrotation Zrotation
				JOINT spine_4
				{
					OFFSET	0	110.4	14.6
					CHANNELS 3  Xrotation Yrotation Zrotation
					JOINT neck_1
					{
						OFFSET	0	71.8	-50.3
						CHANNELS 3  Xrotation Yrotation Zrotation
						JOINT neck_2
						{
							OFFSET	0	86.2	-25.8
							CHANNELS 3  Xrotation Yrotation Zrotation
							JOINT head_ee
							{
								OFFSET	0	179.8	-8.7
								CHANNELS 3  Xrotation Yrotation Zrotation
								End Site
								{
									OFFSET	1	0	0
								}
							}
						}
					}
					JOINT left_clavicle
					{
						OFFSET	-43.2	22.4	-70.8
						CHANNELS 3  Xrotation Yrotation Zrotation
						JOINT left_shoulder
						{
							OFFSET	-93.9	-5.79999	48.7
							CHANNELS 3  Xrotation Yrotation Zrotation
							JOINT left_elbow
							{
								OFFSET	-291.4	-30.8	15.2
								CHANNELS 3  Xrotation Yrotation Zrotation
								JOINT left_lowarm_twist
								{
									OFFSET	-110.7	-3.89999	13.6
									CHANNELS 3  Xrotation Yrotation Zrotation
									JOINT left_hand
									{
										OFFSET	-110.7	-3.89999	13.6
										CHANNELS 3  Xrotation Yrotation Zrotation
										JOINT left_ee
										{
											OFFSET	-80.8	-5.10001	12.1
											CHANNELS 3  Xrotation Yrotation Zrotation
											End Site
											{
												OFFSET	1	0	0
											}
										}
									}
								}
							}
						}
					}
					JOINT right_clavicle
					{
						OFFSET	43.2	22.4	-70.8
						CHANNELS 3  Xrotation Yrotation Zrotation
						JOINT right_shoulder
						{
							OFFSET	93.9	-5.79999	48.7
							CHANNELS 3  Xrotation Yrotation Zrotation
							JOINT right_elbow
							{
								OFFSET	291.4	-30.8	15.2
								CHANNELS 3  Xrotation Yrotation Zrotation
								JOINT right_lowarm_twist
								{
									OFFSET	110.7	-3.89999	13.6
									CHANNELS 3  Xrotation Yrotation Zrotation
									JOINT right_hand
									{
										OFFSET	110.7	-3.89999	13.6
										CHANNELS 3  Xrotation Yrotation Zrotation
										JOINT right_ee
										{
											OFFSET	80.8	-5.10001	12.1
											CHANNELS 3  Xrotation Yrotation Zrotation
											End Site
											{
												OFFSET	1	0	0
											}
										}
									}
								}
							}
						}
					}
				}
			}
		}
	}
	JOINT left_hip
	{
		OFFSET	-82.8	-127.5	0.300001
		CHANNELS 3  Xrotation Yrotation Zrotation
		JOINT left_knee
		{
			OFFSET	-28.2	-396.7	2.2
			CHANNELS 3  Xrotation Yrotation Zrotation
			JOINT left_ankle
			{
				OFFSET	-11.7	-411.3	35.4
				CHANNELS 3  Xrotation Yrotation Zrotation
				JOINT left_toes
				{
					OFFSET	0	-60	-88.6
					CHANNELS 3  Xrotation Yrotation Zrotation
					JOINT left_foot_ee
					{
						OFFSET	-22.5	-16.5	-42.2
						CHANNELS 3  Xrotation Yrotation Zrotation
						End Site
						{
							OFFSET	1	0	0
						}
					}
				}
			}
		}
	}
	JOINT right_hip
	{
		OFFSET	82.8	-127.5	0.300001
		CHANNELS 3  Xrotation Yrotation Zrotation
		JOINT right_knee
		{
			OFFSET	28.2	-396.7	2.2
			CHANNELS 3  Xrotation Yrotation Zrotation
			JOINT right_ankle
			{
				OFFSET	11.7	-411.3	35.4
				CHANNELS 3  Xrotation Yrotation Zrotation
				JOINT right_toes
				{
					OFFSET	0	-60	-88.6
					CHANNELS 3  Xrotation Yrotation Zrotation
					JOINT right_foot_ee
					{
						OFFSET	22.5	-16.5	-42.2
						CHANNELS 3  Xrotation Yrotation Zrotation
						End Site
						{
							OFFSET	1	0	0
						}
					}
				}
			}
		}
	}
}
MOTION
Frames: 9
Frame Time: 0.02
925.131 737.191 -1551.79 41.9482 85.9468 -47.8622 0.243994 0.624816 3.38903 0.250291 0.408027 3.42187 0.277744 -0.303761 3.43269 0.261384 0.24185 3.4376 -17.2477 15.2025 -18.7845 -18.2249 39.5198 -11.6224 -0.0 0.0 -0.0 -4.56851 23.366 -3.58569 -16.367 -36.3649 58.3579 0.211656 -5.98565 0.0110658 -20.3599 -1.14336 2.32511 3.4436 12.4896 28.1257 -0.0 0.0 -0.0 10.6751 -4.70443 -20.7029 -20.3927 43.3476 -53.8795 1.65381 39.3229 -0.590931 -58.9329 5.15035 -5.06672 -7.52261 -26.7798 33.3371 0.0 0.0 0.0 6.98646 -8.25102 0.743911 -26.0054 0.176227 3.95275 30.1281 -14.4558 -4.16598 -17.6706 0.0 0.0 -0.0 0.0 -0.0 6.87532 11.0632 -3.9808 -8.89417 -0.262758 -1.33832 22.9765 -14.4196 3.11984 -26.8136 0.0 0.0 0.0 0.0 0.0 
917.962 737.567 -1554.72 34.8826 86.2415 -40.7274 0.297769 0.530482 3.38816 0.3041 0.313938 3.41501 0.32566 -0.391743 3.40697 0.309496 0.150915 3.42607 -19.0813 16.0906 -17.4842 -20.727 40.0075 -9.15651 -0.0 0.0 -0.0 -4.46332 23.1741 -3.48602 -17.9477 -36.2616 58.4795 0.271461 -7.65903 0.0181709 -20.5432 -1.15731 2.34399 3.34306 13.4629 27.6875 -0.0 0.0 -0.0 10.6705 -4.35343 -20.7252 -17.843 42.7775 -54.5788 1.58472 38.1299 -0.547704 -59.2443 5.18893 -5.07703 -7.66831 -27.7689 33.2908 0.0 0.0 0.0 7.72398 -8.25987 -0.211098 -24.3339 0.219074 3.69984 29.0554 -12.5743 -3.99864 -18.1673 0.0 0.0 -0.0 0.0 -0.0 6.71773 11.6 -4.35335 -9.74674 -0.276964 -1.46838 24.554 -14.845 3.31213 -27.1176 0.0 0.0 0.0 0.0 0.0 
916.378 738.974 -1554.64 31.8643 85.7951 -37.2808 0.273384 0.404928 3.06692 0.278592 0.209046 3.08645 0.292121 -0.429014 3.06365 0.279029 0.0599762 3.09293 -20.2187 16.4204 -17.2857 -22.1975 40.2199 -8.32524 -0.0 0.0 -0.0 -4.17874 22.738 -3.19115 -18.5876 -36.3581 58.832 0.321436 -9.04744 0.0254315 -20.3917 -1.14578 2.32839 3.48198 13.7401 28.7749 -0.0 0.0 -0.0 10.5994 -4.09139 -20.6048 -16.682 42.2146 -55.0898 1.58726 38.1746 -0.549276 -59.4333 5.21237 -5.08319 -8.13524 -29.8377 34.1796 0.0 0.0 0.0 7.97717 -7.38046 -0.601743 -23.002 0.247921 3.49748 30.5442 -9.75956 -4.10068 -18.2 0.0 0.0 -0.0 0.0 -0.0 7.35444 12.2659 -4.65086 -10.1645 -0.283218 -1.53217 26.2776 -15.2448 3.5178 -27.6779 0.0 0.0 0.0 0.0 0.0 
909.989 740.659 -1555.12 22.4063 85.5631 -27.765 0.354007 0.213308 3.19579 0.359688 0.00962566 3.20288 0.362261 -0.644573 3.13743 0.348554 -0.141251 3.19978 -20.7225 16.402 -17.5602 -22.7819 40.179 -8.40431 -0.0 0.0 -0.0 -4.05379 22.3973 -3.09372 -19.1928 -35.9145 59.0908 0.374764 -10.5173 0.0344932 -19.3337 -1.0664 2.21858 3.791 14.3995 31.2386 -0.0 0.0 -0.0 10.4589 -6.27636 -20.1257 -16.7688 41.7615 -56.0411 1.79619 41.6582 -0.6834 -61.5421 5.47514 -5.1466 -8.36854 -30.2906 35.2485 0.0 0.0 0.0 8.19303 -6.7745 -0.908063 -20.4167 0.290452 3.10308 32.7421 -6.46565 -4.27142 -18.1096 0.0 0.0 -0.0 0.0 -0.0 7.28884 12.6894 -4.83399 -10.5573 -0.288674 -1.5922 24.8716 -15.9272 3.35939 -26.9483 0.0 0.0 0.0 0.0 0.0 
903.628 738.648 -1555.89 16.7926 85.6672 -22.0642 0.372794 0.249575 3.24719 0.378659 0.0425538 3.25648 0.383199 -0.622087 3.19685 0.368956 -0.109676 3.25491 -20.4708 16.2783 -16.994 -22.4591 39.7339 -8.04018 -0.0 0.0 -0.0 -3.64143 21.4497 -2.71606 -19.7954 -35.7426 58.1391 0.409982 -11.4804 0.0412126 -18.7402 -1.02276 2.15634 4.11676 15.2274 33.9275 -0.0 0.0 -0.0 10.2042 -7.38847 -19.5198 -16.3705 41.4616 -56.6416 1.86674 42.7561 -0.730797 -62.3001 5.57011 -5.16701 -8.19066 -29.8996 34.4871 0.0 0.0 0.0 8.36875 -5.79515 -0.8743 -16.5871 0.32066 2.51639 30.2577 -2.37667 -3.95863 -19.2179 0.0 0.0 -0.0 0.0 -0.0 7.45536 13.6433 -5.31702 -10.0672 -0.281803 -1.51731 23.413 -16.328 3.18839 -27.0677 0.0 0.0 0.0 0.0 0.0 
898.304 736.138 -1557.46 15.0925 85.2827 -20.1367 0.275561 0.0557287 3.23751 0.281379 -0.150286 3.2345 0.274844 -0.812605 3.13447 0.261267 -0.307647 3.22336 -19.0449 15.9883 -16.6638 -20.6852 39.3934 -8.44576 -0.0 0.0 -0.0 -3.79963 21.5341 -2.92541 -20.3938 -36.637 58.5985 0.485784 -13.5308 0.057629 -18.8205 -1.02863 2.16478 4.24431 15.3935 34.9572 -0.0 0.0 -0.0 10.2136 -8.6236 -19.411 -16.2969 41.2269 -56.8934 2.02556 45.0922 -0.840998 -63.4417 5.71362 -5.19537 -8.18424 -30.0325 34.2875 0.0 0.0 0.0 8.52995 -5.87554 -1.03781 -14.1532 0.31946 2.14299 31.0731 -0.693958 -4.02915 -18.6701 0.0 0.0 -0.0 0.0 -0.0 8.14056 13.2788 -5.57682 -10.5429 -0.288481 -1.59 23.2151 -18.3384 3.18497 -26.6455 0.0 0.0 0.0 0.0 0.0 
892.294 736.792 -1557.51 8.59091 85.2597 -13.9305 0.234542 0.172066 3.20854 0.240268 -0.0323433 3.21299 0.240612 -0.694456 3.13728 0.226929 -0.190533 3.2075 -18.1451 15.9416 -15.9476 -19.6254 39.144 -8.14046 -0.0 0.0 -0.0 -3.64062 20.4812 -2.92412 -20.1466 -37.6909 58.2634 0.549975 -15.24 0.0735784 -18.9484 -1.038 2.17823 4.39659 15.7213 36.2359 -0.0 0.0 -0.0 10.1646 -9.33532 -19.2408 -16.2498 40.9823 -56.9176 2.02477 45.081 -0.840437 -63.963 5.77932 -5.20736 -8.00895 -29.8773 33.2767 0.0 0.0 0.0 8.6673 -5.94627 -1.2509 -12.1438 0.306518 1.83496 28.3836 0.898439 -3.72935 -19.1067 0.0 0.0 -0.0 0.0 -0.0 8.46772 13.5141 -5.39455 -10.7122 -0.290712 -1.61587 22.9868 -19.7916 3.17431 -26.5209 0.0 0.0 0.0 0.0 0.0 
886.97 738.521 -1558.64 0.800218 86.0654 -6.23852 0.21346 0.172566 3.13833 0.218938 -0.0273834 3.14295 0.219536 -0.676248 3.06953 0.206436 -0.183238 3.13772 -18.8625 16.2778 -15.4166 -20.5916 39.3342 -7.16577 -0.0 0.0 -0.0 -3.53272 19.7162 -2.92797 -19.7943 -38.3102 57.7343 0.595222 -16.4286 0.0859252 -19.7153 -1.0948 2.25835 4.408 16.1335 36.4281 -0.0 0.0 -0.0 10.0716 -9.80603 -19.0137 -17.5196 40.5926 -57.332 1.92297 43.6043 -0.769277 -64.0409 5.78915 -5.2091 -7.89719 -29.9233 32.4764 0.0 0.0 0.0 8.93544 -5.94676 -0.933653 -8.5179 0.255873 1.281 20.5106 2.69074 -2.80197 -21.0365 0.0 0.0 -0.0 0.0 -0.0 8.69951 13.7134 -5.34109 -10.8314 -0.292238 -1.63411 22.7639 -20.6536 3.15794 -26.3637 0.0 0.0 0.0 0.0 0.0 
881.268 738.714 -1556.22 -13.7877 86.2374 8.3533 0.177239 0.187722 3.09964 0.182584 -0.00979935 3.1053 0.184177 -0.6531 3.03592 0.171354 -0.165678 3.10089 -18.2664 16.2672 -16.1205 -19.8528 39.8266 -8.07903 -0.0 0.0 -0.0 -2.97518 18.8687 -2.26412 -19.5502 -38.9047 57.6237 0.615034 -16.9445 0.0916141 -19.8345 -1.10372 2.27073 4.51932 16.3525 37.3685 -0.0 0.0 -0.0 10.0411 -8.5879 -19.086 -18.694 40.3316 -56.8627 1.89967 43.2557 -0.753258 -63.7671 5.75462 -5.20293 -7.49557 -29.5491 30.2449 0.0 0.0 0.0 9.07606 -6.37734 -0.780595 -6.17336 0.204504 0.924902 17.6539 3.23715 -2.44193 -21.847 0.0 0.0 -0.0 0.0 -0.0 8.81244 14.199 -5.2609 -10.8905 -0.292979 -1.64314 23.6176 -19.8177 3.25225 -25.9191 0.0 0.0 0.0 0.0 0.0 
